<?xml version="1.0" encoding="UTF-8" standalone="no"?>
<!DOCTYPE svg PUBLIC "-//W3C//DTD SVG 1.1//EN" "http://www.w3.org/Graphics/SVG/1.1/DTD/svg11.dtd">
<svg width="100%" height="100%" viewBox="0 0 400 204" version="1.1" xmlns="http://www.w3.org/2000/svg" xmlns:xlink="http://www.w3.org/1999/xlink" xml:space="preserve" xmlns:serif="http://www.serif.com/" style="fill-rule:evenodd;clip-rule:evenodd;stroke-linejoin:round;stroke-miterlimit:2;">
    <g transform="matrix(1.97695,0,0,1.97695,0.00459552,0)">
        <g id="Layer_2">
            <g id="Layer_1-2">
                <path d="M183.62,62.9C182.82,62.9 182.38,63.9 182.43,64.9C182.53,67.02 182.96,72.2 184.63,72.33C185.55,72.4 185.75,71.33 185.75,70.24C185.75,68.73 185.26,62.88 183.62,62.88" style="fill:white;fill-rule:nonzero;"/>
                <path d="M195.94,64L195.43,63.91L195.3,63.42C194.04,59.04 190.6,54.42 184.66,54.42C182.402,54.439 180.195,55.102 178.3,56.33L177.83,56.62L177.39,56.31C175.612,55.051 173.479,54.389 171.3,54.42C164.74,54.42 159.61,60.31 159.61,67.81C159.61,75.31 164.53,81.3 170.81,81.3C172.914,81.315 174.976,80.702 176.73,79.54L177.17,79.25L177.62,79.54C179.367,80.685 181.411,81.297 183.5,81.3C185.595,81.299 187.649,80.714 189.43,79.61L189.93,79.3L190.37,79.67C191.607,80.713 193.172,81.29 194.79,81.3C199.02,81.3 202.33,77.48 202.33,72.62C202.33,68.27 199.65,64.68 195.94,64.05M174.47,67.51C171.86,67.51 173.07,63.33 171.15,63.33C170.09,63.33 169.51,64.85 169.51,66.19C169.51,68.68 170.84,71.19 172.75,71.19C174.28,71.19 174.75,70.31 175.29,70.31C175.95,70.31 176.38,71.31 176.38,72.13C176.38,74.13 174.2,76.67 170.81,76.67C167.16,76.67 164.21,72.93 164.21,67.79C164.21,62.94 167.21,59.01 171.3,59.01C171.384,59.006 171.468,59.004 171.552,59.004C174.403,59.004 176.768,61.309 176.84,64.16C176.84,66.04 175.84,67.49 174.47,67.49M183.47,76.67C179.89,76.67 176.84,73.74 176.84,68.43C176.84,62.43 180.64,59.01 184.64,59.01C188.87,59.01 191.29,63.62 191.29,67.79C191.29,73.3 187.03,76.67 183.47,76.67M194.77,76.67C193.15,76.67 191.85,74.85 191.85,72.6C191.85,70.35 193.15,68.53 194.77,68.53C196.39,68.53 197.7,70.34 197.7,72.6C197.7,74.86 196.4,76.67 194.77,76.67" style="fill:white;fill-rule:nonzero;"/>
                <path d="M4.34,11.46C4.44,4.56 0.82,7.91 0.82,3.55C0.82,0.47 3.62,0 5.3,0L21,0C34.4,0 38.79,11.53 38.79,23.59C38.79,36.06 33.54,47.78 21.34,47.78C19.26,47.78 17.53,47.72 16.03,47.58C14.53,47.44 13.24,47.45 11.89,47.45C10.54,47.45 9.14,47.51 7.79,47.58C6.428,47.718 5.059,47.784 3.69,47.78C3.676,47.78 3.662,47.78 3.648,47.78C1.645,47.78 -0.002,46.133 -0.002,44.13C-0.002,44.087 -0.002,44.043 0,44C0,39.18 3.81,44.54 4,34.75L4.34,11.46ZM15.91,36C15.91,39.42 16.3,40.82 18.91,40.82C25,40.81 26,32.17 26,25.47C26,9.78 21.76,7.3 18,7.3C16,7.3 15.83,8.44 15.83,10.99L15.91,36Z" style="fill:white;fill-rule:nonzero;"/>
                <path d="M42.23,27.14C42.23,20.57 39.23,24.26 39.23,20.14C39.23,14.85 50.52,13.37 50.95,13.37C52.78,13.37 52.83,14.04 53.02,16.37C53.02,17.18 53.02,18.72 53.84,18.72C55,18.72 55.72,13.42 59.84,13.42C63.07,13.42 65.19,16.77 65.19,21.2C65.19,25.63 62.44,29.2 59.26,29.2C56.08,29.2 55.3,25.4 54,25.4C52.7,25.4 52.9,29.89 52.9,31.1C52.9,33.1 53.04,35.92 53.28,38.47C53.57,41.47 57.28,39.61 57.28,43.63C57.28,47.85 53.04,48.19 47.74,48.19C45.52,48.19 38.96,48.32 38.96,43.7C38.96,40.88 41.18,40.88 41.71,38.53C42.088,36.092 42.265,33.627 42.24,31.16L42.23,27.14Z" style="fill:white;fill-rule:nonzero;"/>
                <path d="M76.8,32C76.27,32 75.5,31.8 75.5,32.94C75.5,36.29 78.63,39.11 80.9,39.11C84.51,39.11 86.3,36.11 87.31,36.11C88.32,36.11 89.19,38.19 89.19,39.46C89.19,44.62 82.39,48.38 78.05,48.38C69.38,48.38 64.89,39.66 64.89,31.02C64.89,20.7 71.21,13.19 78.44,13.19C86.64,13.2 90.25,22 90.25,27C90.25,31.42 88.8,32 87.25,32L76.8,32ZM81,23.59C81,21.18 79.94,19.3 78.16,19.3C76.57,19.3 75.27,21.58 75.27,23.72C75.27,26.14 76.91,25.6 78.16,25.6C79.41,25.6 81,26 81,23.6" style="fill:white;fill-rule:nonzero;"/>
                <path d="M114.6,31.43C114.6,43.23 117.49,36.79 117.49,40.43C117.49,44.25 113.73,48.43 110.21,48.43C106.4,48.43 106.31,45.01 105.1,45.01C104.52,45.01 103.89,45.88 102.83,46.68C101.528,47.828 99.845,48.452 98.11,48.43C94.11,48.43 90.11,45.43 90.11,38.84C90.11,34.08 93.38,28.19 101.87,28.19C103.36,28.19 104.04,28.32 104.04,25.91C104.04,23.7 103.99,19.07 101.77,19.07C98.88,19.07 98.59,26.31 94.3,26.31C92.76,26.31 91.6,24.77 91.6,22.62C91.6,16.93 99.75,13.24 104.33,13.24C107.08,13.24 114.6,14.72 114.6,24.77L114.6,31.43ZM100.13,37.33C100.13,39.07 100.81,40.95 102.21,40.95C104.04,40.95 104.21,38.2 104.21,36.19C104.21,34.71 104.21,33.04 102.91,33.04C101.27,33.04 100.16,35.18 100.16,37.33" style="fill:white;fill-rule:nonzero;"/>
                <path d="M120.05,28.75C120.05,24.46 119.42,23.25 118.94,22.65C118.46,22.05 117.64,21.98 117.64,20.24C117.64,15.24 129.64,13.4 129.64,13.4C130.84,13.4 130.94,14.88 130.94,16.29C130.94,17.09 130.75,19.37 131.76,19.37C132.24,19.37 133.01,17.89 134.36,16.37C135.864,14.521 138.107,13.424 140.49,13.37C146.22,13.37 146.27,19.37 147.28,19.37C147.67,19.37 148.54,17.89 149.93,16.37C151.32,14.85 153.31,13.37 155.77,13.37C160.35,13.37 163.19,16.86 163.19,23.43L163.19,37.6C163.19,41.48 164.98,41.82 164.98,43.76C164.98,47.98 159.48,48.19 157.6,48.19C156.01,48.19 150.42,47.72 150.42,44.19C150.42,41.71 152.1,41.78 152.1,37.89L152.1,31.89C152.1,29.08 152.35,23.45 149.6,23.45C146.85,23.45 147.14,28 147.14,30.45L147.14,34.61C147.14,42.85 148.87,41.44 148.87,43.92C148.87,48.08 143.09,48.15 141.35,48.15C134.07,48.15 133.69,46.27 133.74,44.39C133.74,40.84 136.19,43.65 136.05,35.68L136.05,31.9C136.05,29.49 136.29,23.46 133.54,23.46C130.79,23.46 131.08,28.01 131.08,30.46L131.08,35.89C131.08,42.06 132.39,41.65 132.39,44.07C132.39,45.81 131.28,48.16 124.67,48.16C122.79,48.16 117.1,48.22 117.1,44.67C117.1,41.67 120,43.26 120,34.89L120.05,28.75Z" style="fill:white;fill-rule:nonzero;"/>
                <path d="M31.25,73.62C30.735,74.085 30.425,74.737 30.39,75.43C30.39,76.31 30.92,76.57 31.39,76.91C34.846,79.153 36.895,83.041 36.79,87.16C36.79,93.86 33.56,102.16 23.87,102.16C22.23,102.16 20.73,102.09 19.29,101.96C17.85,101.83 16.4,101.82 14.9,101.82C13.4,101.82 11.57,101.89 9.9,101.96C8.23,102.03 6.63,102.16 4.9,102.16C3.162,102.062 1.786,100.606 1.786,98.865C1.786,98.763 1.791,98.661 1.8,98.56C1.8,94.4 4.93,98.62 5.22,87.5L5.75,68.2C6,58.08 1.89,62.7 1.89,58.08C1.887,58.02 1.885,57.959 1.885,57.898C1.885,55.974 3.437,54.377 5.36,54.32C7.15,54.32 8.93,54.46 10.72,54.52C12.51,54.58 14.28,54.79 16.07,54.79C17.198,54.771 18.323,54.681 19.44,54.52C20.55,54.46 21.71,54.32 22.82,54.32C31.64,54.32 33.91,60.15 33.91,65.32C33.91,68.4 32.99,71.68 31.25,73.62M17.25,70.68C17.25,73.29 17.16,74.56 18.65,74.56C21.55,74.56 22.22,71.75 22.22,68.06C22.22,65.06 21.5,61.29 18.85,61.29C17.06,61.29 17.25,63.29 17.25,65.29L17.25,70.68ZM17.25,87.03C17.25,94.8 18.17,95.03 19.67,95.03C22.41,95.03 23.38,92.42 23.38,88.94C23.38,84.85 22.51,81.23 19.14,81.23C17.64,81.23 17.3,82.3 17.25,83.71L17.25,87.03Z" style="fill:white;fill-rule:nonzero;"/>
                <path d="M37.32,86.29C37.32,74.29 44.88,67.53 52.84,67.53C61.28,67.53 66.1,76.71 66.1,85.02C66.1,96.02 57.61,102.71 50.53,102.71C43.45,102.71 37.32,96.88 37.32,86.29M50.77,75.43C49.18,75.43 48.31,77.51 48.4,79.43C48.6,83.65 49.46,93.97 52.79,94.24C54.62,94.37 55.01,92.24 55.01,90.08C55.01,87.08 54.01,75.4 50.77,75.4" style="fill:white;fill-rule:nonzero;"/>
                <path d="M66.81,86.29C66.81,74.29 74.38,67.53 82.33,67.53C90.77,67.53 95.59,76.71 95.59,85.02C95.59,96.02 87.1,102.71 80.02,102.71C72.94,102.71 66.81,96.88 66.81,86.29M80.26,75.43C78.67,75.43 77.8,77.51 77.9,79.43C78.09,83.68 79,94 82.28,94.27C84.12,94.4 84.5,92.27 84.5,90.11C84.5,87.11 83.5,75.43 80.26,75.43" style="fill:white;fill-rule:nonzero;"/>
                <path d="M110.83,91.59C110.64,91.18 109.48,88.9 109,88.9C108.52,88.9 108.52,90.38 108.52,90.78C108.37,96.78 110.52,94.78 110.52,97.89C110.52,99.76 110.18,102.51 102.66,102.51C98.71,102.51 94.23,102.71 94.23,98.29C94.23,95.07 96.78,97.42 96.93,91.79C97.07,87.1 97.31,80.73 97.31,77.79L97.31,68.2C97.31,62.77 93.6,66.39 93.6,62.57C93.6,58.08 104.5,54.79 107.05,54.79C108.35,54.79 108.45,55.87 108.4,57.34L108.16,71.55C108.06,75.84 108.06,77.55 109.22,77.55C109.99,77.55 113.08,75.27 113.08,74.27C113.08,73.27 112.08,72.79 112.08,71.45C112.08,67.97 117,67.77 118.69,67.77C120.69,67.77 125.92,67.83 125.92,71.99C125.92,74.99 124.14,73.6 121.24,76.08C120.76,76.41 118.88,77.75 118.88,78.56C118.88,80.23 124.52,89.88 125.44,91.42C127.61,95.18 130.26,95.11 130.26,97.93C130.26,100 129.15,101.81 125.44,101.81L118.64,101.81C116.71,101.81 116.47,101.68 115.31,99.6L110.83,91.59Z" style="fill:white;fill-rule:nonzero;"/>
                <path d="M142.7,67.93C143.357,68.124 144.025,68.281 144.7,68.4C145.173,68.374 145.629,68.211 146.01,67.93C146.41,67.705 146.853,67.569 147.31,67.53C149.53,67.53 151.74,73.69 151.74,76.44C151.74,78.25 150.63,79.59 149.38,79.59C146.63,79.59 145.09,74.29 142.97,74.29C141.894,74.486 141.135,75.481 141.23,76.57C141.23,80.86 151.84,81.67 151.84,92.05C151.84,98.35 147.45,102.71 142.44,102.71C141.237,102.671 140.042,102.514 138.87,102.24C137.67,102.04 136.6,101.84 136.32,101.84C135.983,101.852 135.649,101.895 135.32,101.97C135.02,102.054 134.711,102.102 134.4,102.11C133.493,102.19 132.632,101.67 132.28,100.83C130.843,98.31 130.018,95.487 129.87,92.59C129.87,90.85 130.31,89.44 131.71,89.44C133.83,89.44 135.71,96.08 138.45,96.08C139.491,96.078 140.347,95.221 140.347,94.18C140.347,94.096 140.341,94.013 140.33,93.93C140.33,89.93 130.89,89.51 130.89,78.45C130.89,71.75 134.89,67.53 139.8,67.53C140.781,67.527 141.757,67.662 142.7,67.93" style="fill:white;fill-rule:nonzero;"/>
            </g>
        </g>
    </g>
</svg>
