<?xml version="1.0" encoding="UTF-8" standalone="no"?>
<!DOCTYPE svg PUBLIC "-//W3C//DTD SVG 1.1//EN" "http://www.w3.org/Graphics/SVG/1.1/DTD/svg11.dtd">
<svg width="100%" height="100%" viewBox="0 0 1000 600" version="1.1" xmlns="http://www.w3.org/2000/svg" xmlns:xlink="http://www.w3.org/1999/xlink" xml:space="preserve" xmlns:serif="http://www.serif.com/" style="fill-rule:evenodd;clip-rule:evenodd;stroke-linejoin:round;stroke-miterlimit:2;">
    <g transform="matrix(1.35341,0,0,1.35341,-203.774,-78.0594)">
        <path d="M326.182,467.961L179.396,499.622L179.538,500.276L326.323,468.616L326.182,467.961Z" style="fill:rgb(246,221,203);fill-rule:nonzero;"/>
    </g>
    <g transform="matrix(1.35341,0,0,1.35341,-203.774,-78.0594)">
        <path d="M713.677,468.616L860.462,500.276L860.603,499.622L713.818,467.961L713.677,468.616Z" style="fill:rgb(246,221,203);fill-rule:nonzero;"/>
    </g>
    <g transform="matrix(1.35341,0,0,1.35341,-203.774,-78.0594)">
        <path d="M207.179,345.364C206.046,329.039 194.352,281.571 194.11,275.186C193.867,268.801 242.653,218.906 247.691,214.622C252.729,210.338 338.451,190.156 344.324,188.782C350.197,187.408 354.346,196.756 347.127,204.192C347.127,204.192 356.232,200.393 358.307,203.383C360.381,206.373 363.264,213.809 351.061,222.457C351.061,222.457 357.095,221.972 357.284,228.06C357.473,234.149 354.563,238.352 350.603,241.827C350.603,241.827 358.039,245.679 353.514,254.462C348.988,263.245 309.387,291.264 307.313,295.009C305.239,298.754 305.087,348.988 293.264,361.547C281.44,374.106 269.883,379.575 268.86,384.048C267.836,388.52 268.444,423.003 268.444,423.003L208.098,414.385C208.098,414.385 208.311,361.69 207.179,345.364Z" style="fill:rgb(157,105,85);fill-rule:nonzero;"/>
    </g>
    <g transform="matrix(1.35341,0,0,1.35341,-203.774,-78.0594)">
        <path d="M350.85,222.197C337.346,233.167 318.535,235.384 309.918,236.946C307.639,237.367 305.469,239.074 303.097,241.524C295.996,248.881 287.025,263.154 269.911,271.519L270.205,272.121C281.738,266.483 289.603,258.197 295.65,251.148C298.672,247.623 301.243,244.407 303.579,241.989C305.914,239.567 308.016,237.967 310.038,237.605C318.62,236.04 337.566,233.84 351.272,222.717L350.85,222.197Z" style="fill:rgb(128,49,53);fill-rule:nonzero;"/>
    </g>
    <g transform="matrix(1.35341,0,0,1.35341,-203.774,-78.0594)">
        <path d="M350.387,241.571C341.632,248.982 334.75,254.809 327.481,258.255C323.856,259.975 319.558,261.142 315.792,262.173C313.909,262.689 312.159,263.17 310.686,263.676C309.212,264.183 308.016,264.705 307.22,265.345C306.443,265.974 304.849,267.671 302.846,269.9C296.852,276.575 287.355,287.907 287.354,287.908L287.868,288.339C287.87,288.336 288.922,287.08 290.551,285.155C292.993,282.267 296.726,277.879 300.122,273.992C301.819,272.049 303.433,270.231 304.758,268.791C306.08,267.352 307.126,266.28 307.641,265.866C308.314,265.319 309.46,264.803 310.903,264.31C315.239,262.819 322.217,261.491 327.768,258.861C335.154,255.355 342.065,249.49 350.82,242.083L350.387,241.571Z" style="fill:rgb(128,49,53);fill-rule:nonzero;"/>
    </g>
    <g transform="matrix(1.35341,0,0,1.35341,-203.774,-78.0594)">
        <path d="M832.821,345.364C833.953,329.039 845.647,281.571 845.89,275.186C846.133,268.801 797.347,218.906 792.309,214.622C787.271,210.338 701.549,190.156 695.676,188.782C689.803,187.408 685.654,196.756 692.873,204.192C692.873,204.192 683.768,200.393 681.693,203.383C679.619,206.373 676.736,213.809 688.939,222.457C688.939,222.457 682.905,221.972 682.716,228.06C682.527,234.149 685.436,238.352 689.396,241.827C689.396,241.827 681.961,245.679 686.486,254.462C691.012,263.245 730.613,291.264 732.687,295.009C734.761,298.754 734.913,348.988 746.736,361.547C758.56,374.106 770.117,379.575 771.14,384.048C772.164,388.52 771.556,423.003 771.556,423.003L831.903,414.385C831.903,414.385 831.689,361.69 832.821,345.364Z" style="fill:rgb(157,105,85);fill-rule:nonzero;"/>
    </g>
    <g transform="matrix(1.35341,0,0,1.35341,-203.774,-78.0594)">
        <path d="M692.658,204.449C697.615,208.59 703.987,211.974 709.922,214.399C715.859,216.822 721.343,218.284 724.573,218.562C727.681,218.824 734.431,220.507 740.893,222.181C744.127,223.018 747.295,223.852 749.921,224.507C752.55,225.162 754.621,225.636 755.714,225.756C755.895,225.774 756.195,225.887 756.561,226.105C757.951,226.919 760.252,229.096 762.983,231.92C767.088,236.159 772.21,241.873 777.041,246.798C779.457,249.261 781.801,251.527 783.915,253.318C786.032,255.108 787.907,256.425 789.444,256.99L789.674,256.361C787.693,255.643 784.8,253.355 781.585,250.328C776.753,245.788 771.142,239.589 766.344,234.481C763.944,231.926 761.748,229.644 759.946,227.971C759.044,227.134 758.242,226.45 757.553,225.957C756.861,225.466 756.3,225.153 755.787,225.09C754.779,224.982 752.698,224.51 750.083,223.857C746.154,222.877 740.992,221.49 736.216,220.296C731.435,219.103 727.056,218.102 724.63,217.894C721.523,217.631 716.059,216.184 710.175,213.779C704.287,211.374 697.965,208.011 693.088,203.935L692.659,204.449L692.658,204.449Z" style="fill:rgb(128,49,53);fill-rule:nonzero;"/>
    </g>
    <g transform="matrix(1.35341,0,0,1.35341,-203.774,-78.0594)">
        <path d="M800.947,248.386C800.93,248.396 776.229,262.904 749.041,291.059L749.523,291.525C763.086,277.478 776.031,266.835 785.584,259.706C790.36,256.14 794.288,253.453 797.021,251.659C798.387,250.761 799.455,250.087 800.18,249.637C800.905,249.187 801.285,248.964 801.286,248.964L800.947,248.386Z" style="fill:rgb(128,49,53);fill-rule:nonzero;"/>
    </g>
    <g transform="matrix(-1.35341,0,0,1.35341,1197.51,-79.821)">
        <path d="M800.947,248.386C800.93,248.396 776.229,262.904 749.041,291.059L749.523,291.525C763.086,277.478 776.031,266.835 785.584,259.706C790.36,256.14 794.288,253.453 797.021,251.659C798.387,250.761 799.455,250.087 800.18,249.637C800.905,249.187 801.285,248.964 801.286,248.964L800.947,248.386Z" style="fill:rgb(128,49,53);fill-rule:nonzero;"/>
    </g>
    <g transform="matrix(1.35341,0,0,1.35341,-203.774,-78.0594)">
        <path d="M688.728,222.717C702.434,233.84 721.38,236.04 729.962,237.605C731.984,237.967 734.086,239.567 736.421,241.989C743.441,249.246 752.498,263.665 769.795,272.121L770.089,271.519C758.682,265.943 750.887,257.74 744.859,250.711C741.844,247.197 739.273,243.978 736.903,241.524C734.531,239.074 732.361,237.367 730.082,236.946C721.464,235.384 702.653,233.167 689.15,222.197L688.728,222.717Z" style="fill:rgb(128,49,53);fill-rule:nonzero;"/>
    </g>
    <g transform="matrix(1.35341,0,0,1.35341,-203.774,-78.0594)">
        <path d="M689.18,242.083C697.935,249.49 704.846,255.355 712.232,258.861C715.935,260.616 720.265,261.788 724.03,262.819C725.913,263.334 727.653,263.814 729.097,264.31C730.539,264.803 731.686,265.319 732.359,265.866C733.05,266.421 734.667,268.132 736.656,270.348C739.645,273.677 743.515,278.176 746.637,281.841C748.198,283.674 749.572,285.298 750.555,286.465C751.539,287.631 752.131,288.337 752.132,288.339L752.646,287.908C752.645,287.908 748.424,282.87 743.834,277.535C741.539,274.867 739.152,272.125 737.154,269.9C735.151,267.671 733.556,265.974 732.78,265.345C731.984,264.705 730.788,264.183 729.314,263.676C724.9,262.164 717.96,260.838 712.519,258.255C705.25,254.809 698.368,248.982 689.613,241.571L689.18,242.083Z" style="fill:rgb(128,49,53);fill-rule:nonzero;"/>
    </g>
    <g transform="matrix(1.35341,0,0,1.35341,-203.774,-78.0594)">
        <path d="M770.598,63.884C758.183,65.723 547.18,100.054 547.18,100.054C547.18,100.054 539.542,111.244 520,111.244C500.458,111.244 492.82,100.054 492.82,100.054C492.82,100.054 281.816,65.723 269.402,63.884C256.986,62.044 248.71,62.504 249.17,72.62C249.63,82.736 249.63,405.065 250.089,417.94C250.549,430.815 252.388,437.712 264.343,439.091C276.299,440.471 490.112,464.381 490.112,464.381C498.677,470.791 505.746,474.267 520,474.267C534.254,474.267 541.323,470.791 549.888,464.381C549.888,464.381 763.701,440.471 775.656,439.091C787.612,437.712 789.451,430.815 789.911,417.94C790.37,405.065 790.37,82.736 790.83,72.62C791.29,62.504 783.013,62.044 770.598,63.884Z" style="fill:rgb(37,103,150);fill-rule:nonzero;"/>
    </g>
    <g transform="matrix(1.35341,0,0,1.35341,-203.774,-78.0594)">
        <path d="M520,474.267C534.254,474.267 541.323,470.791 549.888,464.381L547.18,100.054C547.18,100.054 539.542,111.244 520,111.244C500.458,111.244 492.82,100.054 492.82,100.054L490.112,464.381C498.677,470.791 505.746,474.267 520,474.267Z" style="fill:rgb(48,77,113);fill-rule:nonzero;"/>
    </g>
    <g transform="matrix(1.35341,0,0,1.35341,-203.774,-78.0594)">
        <path d="M755.424,57.676C755.424,57.676 712.664,62.298 671.968,63.041C625.86,63.883 565.981,59.745 520,96.99C474.019,59.745 414.14,63.883 368.032,63.041C327.336,62.298 284.575,57.676 284.575,57.676L263.884,78.368L268.712,423.917C436.314,423.228 477.007,442.54 486.663,450.816C496.32,459.093 505.286,463.921 520,463.921C534.714,463.921 543.68,459.093 553.336,450.816C562.993,442.54 603.686,423.228 771.288,423.917L776.116,78.368L755.424,57.676Z" style="fill:rgb(231,207,198);fill-rule:nonzero;"/>
    </g>
    <g transform="matrix(1.35341,0,0,1.35341,-203.774,-78.0594)">
        <path d="M518.161,357.244L294.232,401.846L268.712,423.917C436.314,423.228 477.007,442.54 486.663,450.816C496.32,459.093 505.286,463.921 520,463.921C534.714,463.921 543.68,459.093 553.336,450.816C562.993,442.54 603.686,423.228 771.288,423.917L745.768,401.846L518.161,357.244Z" style="fill:rgb(206,189,183);fill-rule:nonzero;"/>
    </g>
    <g transform="matrix(1.35341,0,0,1.35341,-203.774,-78.0594)">
        <path d="M272.86,69.065L281.079,413.286L281.419,413.273C281.42,413.273 281.909,413.254 282.85,413.226C285.67,413.141 292.527,412.97 302.238,412.97C327.734,412.969 372.903,414.149 416.307,421.144C459.713,428.13 501.346,440.977 519.737,464.13L520.262,463.713C501.617,440.294 459.876,427.497 416.414,420.483C372.95,413.478 327.756,412.3 302.238,412.3C289.28,412.3 281.396,412.604 281.393,412.604L281.406,412.939L281.741,412.931L273.53,69.049L272.86,69.065Z" style="fill:rgb(189,174,168);fill-rule:nonzero;"/>
    </g>
    <g transform="matrix(1.35341,0,0,1.35341,-203.774,-78.0594)">
        <path d="M266.193,75.732L274.212,419.247L274.57,419.212C274.573,419.212 275.587,419.113 277.523,418.965C283.331,418.521 297.391,417.631 316.9,417.631C343.03,417.631 378.934,419.227 417.867,425.627C451.397,431.139 474.239,440.534 488.693,448.544C495.92,452.549 501.051,456.208 504.372,458.862C506.032,460.189 507.24,461.265 508.032,462.008C508.428,462.38 508.719,462.668 508.911,462.862C509.103,463.057 509.193,463.155 509.193,463.155L509.687,462.702C509.645,462.653 485.182,436.012 417.976,424.966C378.995,418.558 343.057,416.961 316.9,416.961C290.861,416.961 274.514,418.544 274.506,418.545L274.538,418.878L274.873,418.871L266.863,75.716L266.193,75.732Z" style="fill:rgb(189,174,168);fill-rule:nonzero;"/>
    </g>
    <g transform="matrix(1.35341,0,0,1.35341,-203.774,-78.0594)">
        <path d="M760.454,63.032L751.696,407.254L752.031,407.263L752.043,406.928C740.51,406.527 729.534,406.339 719.088,406.339C634.326,406.339 584.509,418.758 555.863,431.197C527.218,443.634 519.747,456.101 519.711,456.162L520,456.334L520.288,456.162C520.252,456.101 512.781,443.634 484.137,431.197C455.491,418.758 405.674,406.339 320.912,406.339C310.466,406.339 299.49,406.527 287.957,406.928L287.969,407.263L288.304,407.254L279.546,63.032L278.876,63.049L287.642,407.609L287.98,407.598C299.506,407.197 310.474,407.009 320.912,407.009C405.61,407.008 455.336,419.42 483.87,431.811C498.137,438.007 507.106,444.197 512.505,448.829C515.203,451.145 517.01,453.072 518.138,454.416C518.703,455.088 519.099,455.614 519.353,455.971C519.479,456.149 519.57,456.284 519.629,456.375C519.688,456.465 519.711,456.506 519.711,456.506L520,456.988L520.288,456.506C520.288,456.506 520.312,456.465 520.37,456.375C522.187,453.589 554.977,407.013 719.088,407.009C729.526,407.009 740.494,407.197 752.02,407.598L752.357,407.609L761.124,63.049L760.454,63.032Z" style="fill:rgb(189,174,168);fill-rule:nonzero;"/>
    </g>
    <g transform="matrix(1.35341,0,0,1.35341,-203.774,-78.0594)">
        <path d="M766.47,69.049L758.259,412.931L758.594,412.939L758.607,412.604C758.603,412.604 750.72,412.3 737.762,412.3C712.244,412.3 667.05,413.478 623.586,420.483C580.124,427.497 538.383,440.294 519.737,463.713L520.262,464.13C538.654,440.977 580.287,428.13 623.693,421.144C667.097,414.149 712.265,412.969 737.762,412.97C744.235,412.97 749.441,413.046 753.028,413.122C754.822,413.16 756.21,413.198 757.15,413.226C758.091,413.254 758.58,413.273 758.581,413.273L758.921,413.287L767.14,69.065L766.47,69.049Z" style="fill:rgb(189,174,168);fill-rule:nonzero;"/>
    </g>
    <g transform="matrix(1.35341,0,0,1.35341,-203.774,-78.0594)">
        <path d="M773.137,75.716L765.127,418.871L765.462,418.878L765.494,418.545C765.486,418.544 749.138,416.961 723.1,416.961C696.942,416.961 661.005,418.558 622.024,424.966C554.818,436.012 530.355,462.653 530.313,462.702L530.807,463.155C530.807,463.155 530.896,463.057 531.088,462.862C533.97,459.946 559.264,435.963 622.133,425.627C661.066,419.227 696.97,417.631 723.1,417.631C736.106,417.631 746.69,418.026 754.022,418.422C757.688,418.619 760.541,418.817 762.477,418.965C764.413,419.113 765.427,419.212 765.43,419.212L765.788,419.247L773.807,75.732L773.137,75.716Z" style="fill:rgb(189,174,168);fill-rule:nonzero;"/>
    </g>
    <g transform="matrix(1.35341,0,0,1.35341,-203.774,-78.0594)">
        <path d="M520,96.99C474.019,59.745 414.14,63.883 368.032,63.041C327.336,62.298 284.575,57.676 284.575,57.676L294.232,401.846C294.232,401.846 472.639,393.786 520,447.368C567.361,393.786 745.768,401.846 745.768,401.846L755.424,57.676C755.424,57.676 712.664,62.298 671.968,63.041C625.86,63.883 565.981,59.745 520,96.99Z" style="fill:rgb(255,239,233);fill-rule:nonzero;"/>
    </g>
    <g transform="matrix(1.35341,0,0,1.35341,-203.774,-78.0594)">
        <path d="M447.09,391.014C441.491,391.014 436.039,390.272 430.812,388.507C384.53,372.876 404.658,332.239 390.286,311.187C373.404,286.459 353.562,303.897 346.918,243.459C341.209,191.521 388.526,180.977 395.315,164.551C406.488,137.517 396.598,121.454 419.539,103.432C429.503,95.605 438.964,92.64 448.013,92.64C462.161,92.64 475.301,99.892 487.772,107.142C500.244,114.393 512.047,121.645 523.528,121.644C524.388,121.644 525.247,121.603 526.104,121.519C545.136,119.642 570.624,108.164 597.547,108.164C602.933,108.164 608.377,108.624 613.837,109.711C646.592,116.234 650.149,146.19 655.595,167.018C661.041,187.845 691.106,189.33 692.39,225.074C693.673,260.819 649.434,272.659 657.731,303.913C666.028,335.166 660.491,358.951 632.17,375.418C623.712,380.336 615.001,382.108 606.081,382.107C585.134,382.106 563.057,372.329 540.549,370.565C539.325,370.469 538.087,370.423 536.83,370.423C523.517,370.423 508.455,375.571 493.037,380.719C477.617,385.866 461.84,391.014 447.09,391.014Z" style="fill:rgb(255,232,219);fill-rule:nonzero;"/>
    </g>
    <g transform="matrix(1.35341,0,0,1.35341,-203.774,-78.0594)">
        <path d="M519.664,96.99L519.664,447.368L520.335,447.368L520.335,96.99" style="fill:rgb(189,174,168);fill-opacity:0.44;fill-rule:nonzero;"/>
    </g>
    <g transform="matrix(1.35341,0,0,1.35341,-203.774,-78.0594)">
        <path d="M771.14,384.048C772.164,388.52 771.556,423.003 771.556,423.003L831.902,414.385C831.902,414.385 831.689,361.69 832.821,345.364C833.953,329.039 845.648,281.571 845.89,275.186C845.906,274.784 845.725,274.208 845.375,273.483C834.525,267.715 816.303,266.456 807.986,269.823C803.733,271.545 787.484,283.238 778.674,282.861C769.865,282.483 760.976,264.029 758.74,257.806C756.504,251.582 755.643,236.119 750.659,228.171C745.675,220.223 737.19,207.965 732.098,203.366C727.007,198.766 718.009,202.334 715.341,205.216C712.674,208.099 713.617,214.699 715.583,229.139C717.549,243.579 723.125,255.002 726.357,260.796C729.59,266.587 732.149,277.767 732.687,295.009C734.761,298.754 734.913,348.988 746.736,361.547C758.56,374.106 770.117,379.576 771.14,384.048Z" style="fill:rgb(183,119,94);fill-rule:nonzero;"/>
    </g>
    <g transform="matrix(1.35341,0,0,1.35341,-203.774,-78.0594)">
        <path d="M736.381,219.145C735.584,215.663 732.988,208.475 730.674,202.363C725.476,199.404 717.776,202.586 715.341,205.216C714.82,205.78 714.44,206.493 714.175,207.372C715.501,214.939 717.819,225.056 721.052,227.685C726.386,232.022 737.916,225.854 736.381,219.145Z" style="fill:rgb(207,162,144);fill-rule:nonzero;"/>
    </g>
    <g transform="matrix(1.35341,0,0,1.35341,-203.774,-78.0594)">
        <path d="M850.606,445.299C850.606,445.299 858.883,390.466 856.124,385.293C853.365,380.12 830.949,373.912 815.085,373.568C799.222,373.223 759.831,381.17 756.114,387.017C752.397,392.864 746.803,434.953 746.803,434.953C746.803,434.953 726.02,440.815 720.893,451.851C715.766,462.887 708.179,500.949 708.179,500.949L865.435,500.949C865.435,500.949 868.194,475.991 867.504,466.68C866.814,457.369 850.606,445.299 850.606,445.299Z" style="fill:rgb(250,173,99);fill-rule:nonzero;"/>
    </g>
    <g transform="matrix(1.35341,0,0,1.35341,-203.774,-78.0594)">
        <path d="M850.73,444.987C850.704,444.978 820.311,432.869 775.862,432.869C766.71,432.869 756.963,433.382 746.763,434.62L746.844,435.285C757.015,434.051 766.735,433.539 775.862,433.539C798.025,433.539 816.687,436.558 829.804,439.578C836.363,441.087 841.536,442.597 845.067,443.728C846.833,444.294 848.188,444.765 849.101,445.094C850.014,445.423 850.481,445.609 850.482,445.61L850.73,444.987Z" style="fill:rgb(246,221,203);fill-rule:nonzero;"/>
    </g>
    <g transform="matrix(1.35341,0,0,1.35341,-203.774,-78.0594)">
        <path d="M849.173,380.939L849.212,380.903L849.172,380.938L849.173,380.939L849.212,380.903L849.172,380.938C849.215,380.987 851.005,383.035 851.006,390.338C851.006,394.105 850.528,399.267 849.089,406.262C845.925,421.636 845.497,434.468 845.497,440.295C845.497,442.457 845.556,443.654 845.557,443.659L846.226,443.626C846.226,443.625 846.211,443.333 846.197,442.769C846.182,442.204 846.167,441.37 846.167,440.295C846.167,434.501 846.594,421.711 849.745,406.397C851.191,399.367 851.676,394.161 851.676,390.338C851.677,382.693 849.735,380.558 849.66,380.479L849.173,380.939Z" style="fill:rgb(246,221,203);fill-rule:nonzero;"/>
    </g>
    <g transform="matrix(1.35341,0,0,1.35341,-203.774,-78.0594)">
        <path d="M837.622,376.929C837.622,376.931 837.615,377.379 837.567,378.315C837.424,381.123 836.91,388.271 835.101,400.417C832.686,416.628 829.542,439.204 829.542,439.205L830.206,439.297C830.206,439.294 830.402,437.887 830.735,435.517C831.732,428.408 833.953,412.67 835.764,400.516C838.18,384.295 838.292,376.956 838.292,376.94L837.622,376.929Z" style="fill:rgb(246,221,203);fill-rule:nonzero;"/>
    </g>
    <g transform="matrix(1.35341,0,0,1.35341,-203.774,-78.0594)">
        <path d="M821.794,373.778C821.689,373.87 817.086,377.733 815.441,397.335C814.621,407.114 813.761,416.755 813.106,423.952C812.779,427.551 812.503,430.538 812.308,432.625C812.114,434.713 812.002,435.898 812.001,435.901L812.668,435.964C812.668,435.963 814.469,416.953 816.109,397.391C816.927,387.636 818.48,381.835 819.817,378.49C820.485,376.817 821.099,375.758 821.539,375.122C821.759,374.805 821.936,374.593 822.054,374.463L822.186,374.327L822.216,374.3L822.221,374.295L822.157,374.221L822.219,374.297L822.221,374.295L822.157,374.221L822.219,374.297L821.794,373.778Z" style="fill:rgb(246,221,203);fill-rule:nonzero;"/>
    </g>
    <g transform="matrix(1.35341,0,0,1.35341,-203.774,-78.0594)">
        <path d="M805.202,373.901C805.185,373.941 801.622,381.979 800.782,400.452C800.364,409.652 799.292,418.049 798.324,424.145C797.84,427.192 797.382,429.665 797.046,431.374C796.878,432.229 796.74,432.893 796.644,433.343C796.548,433.793 796.495,434.027 796.495,434.028L797.148,434.176C797.15,434.164 800.612,418.949 801.452,400.482C801.87,391.284 802.965,384.697 803.953,380.415C804.448,378.273 804.915,376.708 805.258,375.681C805.429,375.167 805.57,374.788 805.666,374.538C805.715,374.413 805.752,374.321 805.778,374.26L805.815,374.174L805.202,373.901Z" style="fill:rgb(246,221,203);fill-rule:nonzero;"/>
    </g>
    <g transform="matrix(1.35341,0,0,1.35341,-203.774,-78.0594)">
        <path d="M790.715,375.752C790.598,375.807 790.426,375.941 790.189,376.437C789.491,377.93 788.126,382.934 787.562,400.801C787.189,412.698 786.893,420.856 786.69,426.04C786.588,428.632 786.51,430.48 786.457,431.68C786.404,432.88 786.377,433.43 786.377,433.431L787.046,433.465C787.046,433.462 787.487,424.619 788.232,400.822C788.604,388.935 789.342,382.76 789.98,379.578C790.299,377.988 790.594,377.147 790.795,376.724C790.895,376.513 790.971,376.407 791.007,376.364L791.027,376.343L791.018,376.334L791.025,376.343L791.027,376.343L791.018,376.334L791.025,376.343L790.882,376.137L790.982,376.367L791.025,376.343L790.882,376.137L790.982,376.367L790.715,375.752Z" style="fill:rgb(246,221,203);fill-rule:nonzero;"/>
    </g>
    <g transform="matrix(1.35341,0,0,1.35341,-203.774,-78.0594)">
        <path d="M777.089,378.602C777.013,378.704 774.788,381.541 774.786,394.116C774.786,395.437 774.81,396.865 774.865,398.41C774.928,400.198 774.956,402.018 774.956,403.843C774.956,411.179 774.502,418.573 774.048,424.131C773.821,426.91 773.593,429.23 773.423,430.854C773.253,432.479 773.14,433.405 773.14,433.407L773.805,433.489C773.805,433.481 775.626,418.57 775.626,403.843C775.626,402.012 775.598,400.183 775.534,398.386C775.48,396.849 775.456,395.429 775.456,394.116C775.455,387.867 776.012,384.066 776.561,381.842C776.835,380.731 777.107,380.013 777.306,379.58C777.406,379.363 777.487,379.218 777.541,379.13L777.6,379.038L777.612,379.022L777.589,379.005L777.611,379.022L777.612,379.022L777.589,379.005L777.611,379.022L777.089,378.602Z" style="fill:rgb(246,221,203);fill-rule:nonzero;"/>
    </g>
    <g transform="matrix(1.35341,0,0,1.35341,-203.774,-78.0594)">
        <path d="M768.207,380.912C768.126,380.906 766.854,380.989 765.669,382.789C764.482,384.585 763.35,388.044 763.349,394.837C763.349,395.32 763.354,395.819 763.366,396.336C763.41,398.237 763.429,400.255 763.429,402.329C763.429,409.464 763.203,417.267 762.977,423.284C762.864,426.293 762.751,428.856 762.667,430.666C762.582,432.477 762.526,433.531 762.525,433.534L763.195,433.57C763.195,433.567 764.099,416.626 764.099,402.329C764.099,400.251 764.08,398.228 764.036,396.321C764.024,395.809 764.019,395.315 764.019,394.837C764.017,388.115 765.15,384.779 766.227,383.159C766.766,382.347 767.286,381.959 767.658,381.768C767.844,381.672 767.995,381.626 768.093,381.603L768.201,381.584L768.221,381.582L768.217,381.517L768.218,381.582L768.221,381.582L768.217,381.517L768.218,381.582L768.207,380.912Z" style="fill:rgb(246,221,203);fill-rule:nonzero;"/>
    </g>
    <g transform="matrix(1.35341,0,0,1.35341,-203.774,-78.0594)">
        <path d="M758.994,385.091C758.938,385.158 755.656,389.269 755.657,401.799C755.657,403.149 755.695,404.597 755.78,406.148C755.934,408.989 755.997,411.709 755.997,414.259C755.997,420.098 755.665,425.049 755.334,428.538C755.168,430.282 755.002,431.661 754.878,432.604C754.754,433.546 754.672,434.046 754.672,434.048L755.333,434.156C755.335,434.143 756.667,425.988 756.667,414.259C756.667,411.698 756.604,408.966 756.449,406.112C756.365,404.572 756.328,403.137 756.328,401.799C756.328,395.592 757.139,391.502 757.943,388.975C758.344,387.711 758.744,386.837 759.04,386.284C759.188,386.007 759.31,385.81 759.393,385.685L759.487,385.549L759.51,385.519L759.514,385.513L758.994,385.091Z" style="fill:rgb(246,221,203);fill-rule:nonzero;"/>
    </g>
    <g transform="matrix(1.35341,0,0,1.35341,-203.774,-78.0594)">
        <path d="M839.37,442.006C839.37,442.006 839.418,442.034 839.516,442.098C839.809,442.29 840.524,442.782 841.453,443.589L841.892,443.083C840.618,441.976 839.729,441.44 839.716,441.432L839.37,442.006Z" style="fill:rgb(246,221,203);fill-rule:nonzero;"/>
    </g>
    <g transform="matrix(1.35341,0,0,1.35341,-203.774,-78.0594)">
        <path d="M844.117,446.286C845.091,447.429 846.094,448.81 847.004,450.436L847.589,450.109C846.656,448.44 845.626,447.025 844.628,445.852L844.118,446.286L844.117,446.286ZM848.606,453.875C849.166,455.353 849.625,456.978 849.93,458.754L850.59,458.641C850.278,456.821 849.807,455.154 849.233,453.638L848.606,453.875ZM850.324,462.537C850.384,463.728 850.411,464.999 850.411,466.325C850.411,466.759 850.408,467.198 850.402,467.643L851.072,467.652C851.078,467.204 851.081,466.762 851.081,466.325C851.081,464.989 851.053,463.708 850.993,462.503L850.324,462.537ZM850.294,471.481C850.223,473.158 850.123,474.874 850.003,476.594L850.671,476.64C850.792,474.916 850.892,473.194 850.963,471.509L850.294,471.48L850.294,471.481ZM849.703,480.426C849.553,482.164 849.388,483.877 849.217,485.528L849.884,485.597C850.055,483.943 850.22,482.226 850.37,480.484L849.703,480.426ZM848.799,489.351C848.586,491.207 848.374,492.926 848.179,494.44L848.844,494.526C849.039,493.009 849.251,491.287 849.465,489.427L848.799,489.351Z" style="fill:rgb(246,221,203);fill-rule:nonzero;"/>
    </g>
    <g transform="matrix(1.35341,0,0,1.35341,-203.774,-78.0594)">
        <path d="M847.668,498.253C847.435,499.925 847.286,500.896 847.286,500.898L847.948,501C847.948,500.998 848.098,500.021 848.332,498.346L847.668,498.253Z" style="fill:rgb(246,221,203);fill-rule:nonzero;"/>
    </g>
    <g transform="matrix(1.35341,0,0,1.35341,-203.774,-78.0594)">
        <path d="M867.501,466.643L867.501,466.635L867.501,466.643ZM867.494,466.559L867.494,466.555L867.494,466.559Z" style="fill:rgb(250,182,159);fill-rule:nonzero;"/>
    </g>
    <g transform="matrix(1.35341,0,0,1.35341,-203.774,-78.0594)">
        <path d="M865.435,500.949L847.956,500.949C847.989,500.728 848.129,499.8 848.332,498.346L847.668,498.253C847.435,499.925 847.286,500.896 847.286,500.898L847.616,500.949L708.179,500.949L861.823,455.786C864.751,459.24 867.186,463.083 867.494,466.555L867.494,466.559C867.497,466.584 867.499,466.61 867.501,466.635L867.501,466.643C867.502,466.655 867.503,466.668 867.504,466.68C867.581,467.717 867.615,468.947 867.615,470.316C867.614,479.302 866.139,494.237 865.616,499.25C865.589,499.51 865.564,499.744 865.543,499.949C865.474,500.592 865.435,500.949 865.435,500.949ZM848.799,489.351C848.586,491.207 848.374,492.926 848.179,494.44L848.844,494.526C849.039,493.009 849.251,491.287 849.465,489.427L848.799,489.351ZM849.703,480.426C849.553,482.164 849.388,483.877 849.217,485.528L849.884,485.597C850.055,483.943 850.22,482.226 850.37,480.484L849.703,480.426ZM850.294,471.48L850.294,471.481C850.223,473.158 850.123,474.874 850.003,476.594L850.671,476.64C850.792,474.916 850.892,473.194 850.963,471.509L850.294,471.48ZM850.993,462.503L850.324,462.537C850.384,463.728 850.411,464.999 850.411,466.325C850.411,466.759 850.408,467.198 850.402,467.643L851.072,467.652C851.078,467.204 851.081,466.762 851.081,466.325C851.081,464.989 851.053,463.708 850.993,462.503Z" style="fill:rgb(249,160,86);fill-rule:nonzero;"/>
    </g>
    <g transform="matrix(1.35341,0,0,1.35341,-203.774,-78.0594)">
        <path d="M848.844,494.526L848.179,494.44C848.374,492.926 848.586,491.207 848.799,489.351L849.465,489.427C849.251,491.287 849.039,493.009 848.844,494.526ZM849.884,485.597L849.217,485.528C849.388,483.877 849.553,482.164 849.703,480.426L850.37,480.484C850.22,482.226 850.055,483.943 849.884,485.597ZM850.671,476.64L850.003,476.594C850.123,474.874 850.223,473.158 850.294,471.481L850.294,471.48L850.963,471.509C850.892,473.194 850.792,474.916 850.671,476.64ZM851.072,467.652L850.402,467.643C850.408,467.198 850.411,466.759 850.411,466.325C850.411,464.999 850.384,463.728 850.324,462.537L850.993,462.503C851.053,463.708 851.081,464.989 851.081,466.325C851.081,466.762 851.078,467.204 851.072,467.652Z" style="fill:rgb(246,204,177);fill-rule:nonzero;"/>
    </g>
    <g transform="matrix(1.35341,0,0,1.35341,-203.774,-78.0594)">
        <path d="M847.956,500.949L847.616,500.949L847.286,500.898C847.286,500.896 847.435,499.925 847.668,498.253L848.332,498.346C848.129,499.8 847.989,500.728 847.956,500.949Z" style="fill:rgb(246,204,177);fill-rule:nonzero;"/>
    </g>
    <g transform="matrix(1.35341,0,0,1.35341,-203.774,-78.0594)">
        <path d="M268.86,384.048C267.836,388.52 268.444,423.003 268.444,423.003L208.098,414.385C208.098,414.385 208.311,361.69 207.179,345.364C206.046,329.039 194.352,281.571 194.11,275.186C194.094,274.784 194.275,274.208 194.625,273.483C205.475,267.715 223.697,266.456 232.014,269.823C236.267,271.545 252.516,283.238 261.325,282.861C270.135,282.483 279.024,264.029 281.26,257.806C283.496,251.582 284.357,236.119 289.341,228.171C294.325,220.223 302.81,207.965 307.902,203.366C312.993,198.766 321.991,202.334 324.659,205.216C327.326,208.099 326.383,214.699 324.417,229.139C322.451,243.579 316.875,255.002 313.642,260.796C310.41,266.587 307.851,277.767 307.313,295.009C305.239,298.754 305.087,348.988 293.264,361.547C281.44,374.106 269.883,379.576 268.86,384.048Z" style="fill:rgb(183,119,94);fill-rule:nonzero;"/>
    </g>
    <g transform="matrix(1.35341,0,0,1.35341,-203.774,-78.0594)">
        <path d="M303.619,219.145C304.416,215.663 307.012,208.475 309.326,202.363C314.524,199.404 322.224,202.586 324.659,205.216C325.18,205.78 325.56,206.493 325.825,207.372C324.499,214.939 322.181,225.056 318.948,227.685C313.614,232.022 302.084,225.854 303.619,219.145Z" style="fill:rgb(207,162,144);fill-rule:nonzero;"/>
    </g>
    <g transform="matrix(1.35341,0,0,1.35341,-203.774,-78.0594)">
        <path d="M189.394,445.299C189.394,445.299 181.117,390.466 183.876,385.293C186.635,380.12 209.051,373.912 224.915,373.568C240.778,373.223 280.169,381.17 283.886,387.017C287.602,392.864 293.197,434.953 293.197,434.953C293.197,434.953 313.98,440.815 319.107,451.851C324.234,462.887 331.821,500.949 331.821,500.949L174.565,500.949C174.565,500.949 171.806,475.991 172.496,466.68C173.186,457.369 189.394,445.299 189.394,445.299Z" style="fill:rgb(250,173,99);fill-rule:nonzero;"/>
    </g>
    <g transform="matrix(1.35341,0,0,1.35341,-203.774,-78.0594)">
        <path d="M189.518,445.61C189.519,445.609 189.986,445.423 190.899,445.094C197.291,442.788 225.352,433.538 264.138,433.539C273.265,433.539 282.985,434.051 293.157,435.285L293.237,434.62C283.037,433.382 273.29,432.869 264.138,432.869C219.689,432.869 189.296,444.978 189.27,444.987L189.518,445.61Z" style="fill:rgb(246,221,203);fill-rule:nonzero;"/>
    </g>
    <g transform="matrix(1.35341,0,0,1.35341,-203.774,-78.0594)">
        <path d="M190.339,380.479C190.265,380.558 188.323,382.693 188.324,390.338C188.324,394.161 188.808,399.367 190.255,406.397C193.406,421.711 193.833,434.501 193.833,440.295C193.833,441.37 193.818,442.204 193.803,442.769C193.789,443.333 193.774,443.625 193.774,443.626L194.443,443.659C194.444,443.654 194.503,442.457 194.503,440.295C194.502,434.468 194.075,421.636 190.911,406.262C189.472,399.267 188.994,394.105 188.994,390.338C188.994,386.57 189.472,384.199 189.939,382.782C190.173,382.073 190.404,381.603 190.572,381.315C190.656,381.171 190.724,381.072 190.769,381.012L190.818,380.949L190.828,380.938L190.788,380.903L190.827,380.939L190.828,380.938L190.788,380.903L190.827,380.939L190.339,380.479Z" style="fill:rgb(246,221,203);fill-rule:nonzero;"/>
    </g>
    <g transform="matrix(1.35341,0,0,1.35341,-203.774,-78.0594)">
        <path d="M201.708,376.94C201.708,376.956 201.82,384.295 204.236,400.516C205.443,408.619 206.833,418.315 207.92,425.984C208.464,429.819 208.933,433.147 209.265,435.517C209.598,437.887 209.794,439.294 209.794,439.297L210.458,439.205C210.458,439.204 207.314,416.628 204.899,400.417C203.693,392.32 203.063,386.444 202.734,382.594C202.57,380.669 202.481,379.251 202.433,378.315C202.385,377.379 202.378,376.931 202.378,376.929L201.708,376.94Z" style="fill:rgb(246,221,203);fill-rule:nonzero;"/>
    </g>
    <g transform="matrix(1.35341,0,0,1.35341,-203.774,-78.0594)">
        <path d="M217.781,374.297L217.844,374.22L217.779,374.295L217.781,374.297L217.844,374.22L217.779,374.295C217.817,374.323 222.282,378.18 223.891,397.391C225.531,416.953 227.332,435.963 227.332,435.964L227.999,435.901C227.998,435.898 227.886,434.713 227.692,432.625C227.109,426.363 225.788,412.003 224.559,397.335C222.914,377.733 218.311,373.87 218.206,373.778L217.781,374.297Z" style="fill:rgb(246,221,203);fill-rule:nonzero;"/>
    </g>
    <g transform="matrix(1.35341,0,0,1.35341,-203.774,-78.0594)">
        <path d="M234.185,374.174L234.222,374.26C234.6,375.169 237.764,383.236 238.548,400.482C239.388,418.949 242.85,434.164 242.852,434.176L243.505,434.028C243.505,434.027 243.452,433.793 243.356,433.343C242.685,430.193 239.95,416.553 239.218,400.452C238.378,381.979 234.815,373.941 234.798,373.901L234.185,374.174Z" style="fill:rgb(246,221,203);fill-rule:nonzero;"/>
    </g>
    <g transform="matrix(1.35341,0,0,1.35341,-203.774,-78.0594)">
        <path d="M249.018,376.367L249.105,376.167L248.97,376.34L249.018,376.367L249.105,376.167L248.97,376.34L248.989,376.36C249.119,376.497 249.684,377.403 250.255,380.87C250.832,384.339 251.441,390.374 251.768,400.822C252.513,424.619 252.954,433.462 252.954,433.465L253.623,433.431C253.623,433.43 253.596,432.88 253.543,431.68C253.384,428.08 252.997,418.647 252.438,400.801C252.065,388.893 251.327,382.692 250.676,379.446C250.35,377.823 250.047,376.938 249.811,376.437C249.573,375.941 249.402,375.807 249.285,375.752L249.018,376.367Z" style="fill:rgb(246,221,203);fill-rule:nonzero;"/>
    </g>
    <g transform="matrix(1.35341,0,0,1.35341,-203.774,-78.0594)">
        <path d="M262.389,379.022L262.411,379.005L262.388,379.022L262.389,379.022L262.411,379.005L262.388,379.022C262.45,379.097 264.547,382.006 264.544,394.116C264.544,395.429 264.52,396.849 264.466,398.386C264.402,400.183 264.374,402.012 264.374,403.843C264.374,418.57 266.194,433.481 266.195,433.489L266.86,433.407C266.86,433.405 266.747,432.479 266.577,430.854C266.066,425.98 265.044,414.848 265.044,403.843C265.044,402.018 265.072,400.198 265.135,398.409C265.19,396.865 265.214,395.437 265.214,394.116C265.212,381.541 262.987,378.704 262.911,378.602L262.389,379.022Z" style="fill:rgb(246,221,203);fill-rule:nonzero;"/>
    </g>
    <g transform="matrix(1.35341,0,0,1.35341,-203.774,-78.0594)">
        <path d="M271.782,381.582L271.783,381.518L271.779,381.582L271.782,381.582L271.783,381.518L271.779,381.582C271.826,381.592 272.824,381.645 273.873,383.316C274.919,384.991 275.983,388.326 275.981,394.837C275.981,395.314 275.976,395.809 275.964,396.321C275.92,398.228 275.901,400.251 275.901,402.329C275.901,416.626 276.805,433.567 276.805,433.57L277.475,433.534C277.474,433.531 277.418,432.477 277.333,430.666C277.079,425.236 276.571,413.032 276.571,402.329C276.571,400.255 276.59,398.237 276.634,396.336C276.646,395.819 276.651,395.32 276.651,394.837C276.65,388.044 275.518,384.585 274.331,382.789C273.146,380.988 271.874,380.906 271.793,380.912L271.782,381.582Z" style="fill:rgb(246,221,203);fill-rule:nonzero;"/>
    </g>
    <g transform="matrix(1.35341,0,0,1.35341,-203.774,-78.0594)">
        <path d="M280.486,385.513L280.49,385.519C280.629,385.7 283.671,389.771 283.672,401.799C283.672,403.137 283.635,404.572 283.551,406.112C283.396,408.966 283.333,411.698 283.333,414.259C283.333,425.988 284.665,434.143 284.667,434.156L285.328,434.048C285.328,434.046 285.246,433.546 285.122,432.604C284.749,429.777 284.003,423.018 284.003,414.259C284.003,411.709 284.066,408.99 284.22,406.148C284.304,404.597 284.342,403.149 284.342,401.799C284.344,389.269 281.062,385.158 281.006,385.091L280.486,385.513Z" style="fill:rgb(246,221,203);fill-rule:nonzero;"/>
    </g>
    <g transform="matrix(1.35341,0,0,1.35341,-203.774,-78.0594)">
        <path d="M200.284,441.432C200.271,441.44 199.382,441.976 198.108,443.083L198.547,443.589C199.167,443.051 199.691,442.653 200.058,442.391C200.242,442.26 200.387,442.162 200.484,442.098C200.582,442.034 200.63,442.006 200.63,442.006L200.284,441.432Z" style="fill:rgb(246,221,203);fill-rule:nonzero;"/>
    </g>
    <g transform="matrix(1.35341,0,0,1.35341,-203.774,-78.0594)">
        <path d="M195.372,445.852C194.374,447.025 193.344,448.44 192.411,450.109L192.996,450.436C193.905,448.81 194.909,447.429 195.882,446.286L195.372,445.852ZM190.768,453.638C190.193,455.154 189.722,456.821 189.409,458.641L190.07,458.754C190.375,456.978 190.834,455.353 191.394,453.875L190.768,453.638ZM189.007,462.503C188.946,463.708 188.919,464.989 188.919,466.325C188.919,466.762 188.922,467.204 188.928,467.652L189.598,467.643C189.592,467.198 189.589,466.759 189.589,466.325C189.589,464.999 189.616,463.728 189.676,462.537L189.007,462.503ZM189.037,471.509C189.108,473.194 189.208,474.916 189.329,476.64L189.997,476.594C189.876,474.874 189.777,473.158 189.706,471.48L189.037,471.509ZM189.63,480.483C189.78,482.226 189.945,483.943 190.116,485.597L190.783,485.528C190.612,483.877 190.447,482.164 190.297,480.426L189.63,480.483ZM190.535,489.427C190.749,491.287 190.961,493.009 191.156,494.526L191.821,494.44C191.626,492.926 191.414,491.207 191.201,489.351L190.535,489.427Z" style="fill:rgb(246,221,203);fill-rule:nonzero;"/>
    </g>
    <g transform="matrix(1.35341,0,0,1.35341,-203.774,-78.0594)">
        <path d="M191.668,498.346C191.902,500.021 192.051,500.998 192.052,501L192.714,500.898C192.713,500.896 192.565,499.925 192.332,498.253L191.668,498.346Z" style="fill:rgb(246,221,203);fill-rule:nonzero;"/>
    </g>
    <g transform="matrix(1.35341,0,0,1.35341,-203.774,-78.0594)">
        <path d="M172.499,466.644L172.499,466.634L172.499,466.644ZM172.502,466.598C172.502,466.597 172.502,466.597 172.503,466.596C172.503,466.597 172.502,466.598 172.502,466.598ZM172.505,466.562C172.506,466.559 172.506,466.555 172.506,466.551C172.506,466.555 172.506,466.559 172.505,466.562ZM172.509,466.518C172.51,466.516 172.51,466.513 172.51,466.511C172.51,466.513 172.51,466.516 172.509,466.518ZM172.513,466.481C172.513,466.476 172.514,466.472 172.514,466.467C172.514,466.472 172.513,466.477 172.513,466.481ZM172.517,466.439C172.518,466.435 172.518,466.43 172.519,466.425C172.518,466.43 172.518,466.435 172.517,466.439ZM172.521,466.399C172.522,466.394 172.522,466.39 172.523,466.385C172.522,466.39 172.522,466.394 172.521,466.399ZM172.526,466.355C172.527,466.351 172.527,466.347 172.527,466.343C172.527,466.347 172.527,466.351 172.526,466.355ZM172.531,466.316C172.531,466.312 172.532,466.307 172.532,466.302C172.532,466.307 172.531,466.312 172.531,466.316ZM172.535,466.275C172.536,466.269 172.537,466.263 172.538,466.256C172.537,466.262 172.536,466.269 172.535,466.275ZM172.54,466.236C172.541,466.23 172.542,466.224 172.542,466.219C172.542,466.224 172.541,466.23 172.54,466.236ZM172.546,466.194C172.546,466.187 172.547,466.18 172.548,466.173C172.547,466.18 172.546,466.187 172.546,466.194ZM172.551,466.153C172.552,466.147 172.553,466.141 172.553,466.135C172.553,466.141 172.552,466.147 172.551,466.153ZM172.556,466.113C172.557,466.105 172.559,466.097 172.56,466.089C172.559,466.097 172.557,466.105 172.556,466.113ZM172.562,466.07C172.563,466.064 172.564,466.058 172.565,466.052C172.564,466.058 172.563,466.064 172.562,466.07ZM172.568,466.03C172.569,466.022 172.571,466.014 172.572,466.006C172.571,466.014 172.569,466.022 172.568,466.03ZM172.575,465.987C172.576,465.981 172.577,465.975 172.577,465.969C172.577,465.974 172.576,465.981 172.575,465.987ZM172.581,465.948C172.582,465.939 172.583,465.931 172.585,465.922C172.583,465.931 172.582,465.939 172.581,465.948ZM172.588,465.904C172.589,465.898 172.59,465.892 172.591,465.886C172.59,465.892 172.589,465.898 172.588,465.904ZM172.594,465.865C172.596,465.856 172.597,465.847 172.599,465.838C172.597,465.847 172.596,465.855 172.594,465.865ZM172.601,465.822C172.602,465.815 172.604,465.808 172.605,465.801C172.604,465.808 172.602,465.815 172.601,465.822ZM172.607,465.789C172.609,465.777 172.611,465.765 172.613,465.753C172.611,465.765 172.609,465.776 172.607,465.789ZM172.616,465.739C172.617,465.732 172.618,465.725 172.619,465.718C172.618,465.725 172.617,465.732 172.616,465.739ZM172.623,465.7C172.624,465.69 172.626,465.681 172.628,465.672C172.626,465.681 172.624,465.69 172.623,465.7ZM172.631,465.653C172.632,465.648 172.634,465.641 172.635,465.636C172.634,465.641 172.632,465.648 172.631,465.653ZM172.639,465.61C172.641,465.603 172.642,465.595 172.644,465.588C172.642,465.595 172.641,465.603 172.639,465.61ZM172.647,465.57C172.648,465.564 172.65,465.558 172.651,465.552C172.65,465.558 172.648,465.564 172.647,465.57ZM172.657,465.522C172.658,465.517 172.659,465.511 172.66,465.506C172.659,465.512 172.658,465.517 172.657,465.522ZM172.664,465.485C172.665,465.48 172.667,465.474 172.668,465.468C172.667,465.474 172.665,465.48 172.664,465.485ZM172.674,465.437C172.675,465.432 172.676,465.427 172.677,465.423C172.676,465.428 172.675,465.432 172.674,465.437ZM172.682,465.401C172.683,465.396 172.684,465.39 172.685,465.385C172.684,465.39 172.683,465.396 172.682,465.401ZM172.692,465.353C172.693,465.349 172.694,465.345 172.695,465.341C172.694,465.345 172.693,465.349 172.692,465.353ZM172.701,465.315C172.701,465.311 172.702,465.307 172.703,465.302C172.702,465.307 172.702,465.31 172.701,465.315ZM172.711,465.268C172.712,465.264 172.713,465.261 172.713,465.257C172.713,465.261 172.712,465.264 172.711,465.268ZM172.719,465.231C172.72,465.227 172.721,465.223 172.722,465.218C172.721,465.223 172.721,465.226 172.719,465.231ZM172.73,465.183C172.731,465.18 172.732,465.177 172.733,465.174C172.732,465.178 172.731,465.18 172.73,465.183ZM172.739,465.145C172.74,465.142 172.741,465.138 172.742,465.134C172.741,465.138 172.74,465.141 172.739,465.145ZM172.751,465.099C172.751,465.096 172.752,465.093 172.753,465.091C172.752,465.093 172.751,465.096 172.751,465.099ZM172.76,465.06C172.761,465.057 172.762,465.054 172.762,465.051C172.762,465.054 172.761,465.057 172.76,465.06ZM172.772,465.014C172.772,465.012 172.773,465.009 172.773,465.007C172.773,465.01 172.772,465.012 172.772,465.014ZM172.781,464.975C172.782,464.972 172.783,464.969 172.784,464.967C172.783,464.97 172.782,464.972 172.781,464.975ZM172.793,464.929C172.794,464.927 172.794,464.925 172.795,464.923C172.794,464.925 172.794,464.927 172.793,464.929ZM172.804,464.889C172.804,464.887 172.805,464.885 172.805,464.883C172.805,464.885 172.804,464.887 172.804,464.889ZM172.816,464.843L172.816,464.842L172.816,464.843ZM172.827,464.801L172.827,464.8L172.827,464.801Z" style="fill:rgb(250,182,159);fill-rule:nonzero;"/>
    </g>
    <g transform="matrix(1.35341,0,0,1.35341,-203.774,-78.0594)">
        <path d="M331.821,500.949L192.384,500.949L192.714,500.898C192.713,500.896 192.565,499.925 192.332,498.253L191.668,498.346C191.871,499.8 192.01,500.728 192.044,500.949L174.565,500.949C174.565,500.949 172.386,481.239 172.385,470.316C172.385,468.947 172.419,467.717 172.496,466.68C172.497,466.668 172.498,466.656 172.499,466.644L172.499,466.634C172.5,466.622 172.501,466.61 172.502,466.598C172.502,466.598 172.503,466.597 172.503,466.596C172.503,466.585 172.504,466.574 172.505,466.562C172.506,466.559 172.506,466.555 172.506,466.551C172.507,466.54 172.508,466.529 172.509,466.518C172.51,466.516 172.51,466.513 172.51,466.511C172.511,466.501 172.512,466.491 172.513,466.481C172.513,466.477 172.514,466.472 172.514,466.467C172.515,466.458 172.516,466.449 172.517,466.439C172.518,466.435 172.518,466.43 172.519,466.425C172.52,466.416 172.52,466.408 172.521,466.399C172.522,466.394 172.522,466.39 172.523,466.385C172.524,466.375 172.525,466.365 172.526,466.355C172.527,466.351 172.527,466.347 172.527,466.343C172.529,466.334 172.529,466.325 172.531,466.316C172.531,466.312 172.532,466.307 172.532,466.302C172.533,466.293 172.534,466.284 172.535,466.275C172.536,466.269 172.537,466.262 172.538,466.256C172.538,466.25 172.539,466.243 172.54,466.236C172.541,466.23 172.542,466.224 172.542,466.219C172.543,466.21 172.544,466.202 172.546,466.194C172.546,466.187 172.547,466.18 172.548,466.173C172.549,466.167 172.55,466.16 172.551,466.153C172.552,466.147 172.553,466.141 172.553,466.135C172.554,466.128 172.555,466.12 172.556,466.113C172.557,466.105 172.559,466.097 172.56,466.089C172.561,466.083 172.562,466.076 172.562,466.07C172.563,466.064 172.564,466.058 172.565,466.052C172.566,466.045 172.567,466.038 172.568,466.03C172.569,466.022 172.571,466.014 172.572,466.006C172.573,466 172.574,465.994 172.575,465.987C172.576,465.981 172.577,465.974 172.577,465.969C172.579,465.962 172.58,465.955 172.581,465.948C172.582,465.939 172.583,465.931 172.585,465.922L172.591,465.886C172.592,465.879 172.593,465.872 172.594,465.865C172.596,465.855 172.597,465.847 172.599,465.838C172.599,465.833 172.6,465.827 172.601,465.822C172.602,465.815 172.604,465.808 172.605,465.801C172.606,465.797 172.606,465.793 172.607,465.789C172.609,465.776 172.611,465.765 172.613,465.753C172.614,465.748 172.615,465.743 172.616,465.739C172.617,465.732 172.618,465.725 172.619,465.718C172.621,465.712 172.622,465.706 172.623,465.7C172.624,465.69 172.626,465.681 172.628,465.672C172.629,465.666 172.63,465.66 172.631,465.653C172.632,465.648 172.634,465.641 172.635,465.636C172.636,465.627 172.638,465.619 172.639,465.61C172.641,465.603 172.642,465.595 172.644,465.588C172.645,465.582 172.646,465.576 172.647,465.57C172.648,465.564 172.65,465.558 172.651,465.552C172.653,465.542 172.655,465.532 172.657,465.522C172.658,465.517 172.659,465.512 172.66,465.506C172.661,465.499 172.663,465.492 172.664,465.485C172.665,465.48 172.667,465.474 172.668,465.468C172.67,465.458 172.672,465.447 172.674,465.437C172.675,465.432 172.676,465.428 172.677,465.423C172.679,465.415 172.68,465.408 172.682,465.401C172.683,465.396 172.684,465.39 172.685,465.385C172.687,465.375 172.69,465.364 172.692,465.353C172.693,465.349 172.694,465.345 172.695,465.341C172.697,465.332 172.699,465.323 172.701,465.315C172.702,465.31 172.702,465.307 172.703,465.302C172.706,465.291 172.708,465.279 172.711,465.268C172.712,465.264 172.713,465.261 172.713,465.257C172.715,465.248 172.717,465.24 172.719,465.231C172.721,465.226 172.721,465.223 172.722,465.218C172.725,465.207 172.728,465.195 172.73,465.183C172.731,465.18 172.732,465.178 172.733,465.174C172.735,465.165 172.737,465.155 172.739,465.145C172.74,465.141 172.741,465.138 172.742,465.134C172.745,465.122 172.748,465.111 172.751,465.099C172.751,465.096 172.752,465.093 172.753,465.091C172.755,465.08 172.758,465.07 172.76,465.06C172.761,465.057 172.762,465.054 172.762,465.051C172.765,465.039 172.768,465.026 172.772,465.014C172.772,465.012 172.773,465.01 172.773,465.007C172.776,464.996 172.779,464.986 172.781,464.975C172.782,464.972 172.783,464.97 172.784,464.967C172.787,464.954 172.79,464.942 172.793,464.929C172.794,464.927 172.794,464.925 172.795,464.923C172.798,464.912 172.801,464.901 172.804,464.889C172.804,464.887 172.805,464.885 172.805,464.883C172.809,464.869 172.812,464.856 172.816,464.843L172.816,464.842C172.82,464.829 172.823,464.815 172.827,464.801L172.827,464.8C173.635,461.819 175.734,458.667 178.178,455.786L331.821,500.949ZM191.201,489.351L190.535,489.427C190.749,491.287 190.961,493.009 191.156,494.526L191.821,494.44C191.626,492.926 191.414,491.207 191.201,489.351ZM190.297,480.426L189.63,480.483C189.78,482.226 189.945,483.943 190.116,485.597L190.783,485.528C190.612,483.877 190.447,482.164 190.297,480.426ZM189.706,471.48L189.037,471.509C189.108,473.194 189.208,474.916 189.329,476.64L189.997,476.594C189.876,474.874 189.777,473.158 189.706,471.48ZM189.007,462.503C188.946,463.708 188.919,464.989 188.919,466.325C188.919,466.762 188.922,467.204 188.928,467.652L189.598,467.643C189.592,467.198 189.589,466.759 189.589,466.325C189.589,464.999 189.616,463.728 189.676,462.537L189.007,462.503Z" style="fill:rgb(249,160,86);fill-rule:nonzero;"/>
    </g>
    <g transform="matrix(1.35341,0,0,1.35341,-203.774,-78.0594)">
        <path d="M191.156,494.526C190.961,493.009 190.749,491.287 190.535,489.427L191.201,489.351C191.414,491.207 191.626,492.926 191.821,494.44L191.156,494.526ZM190.116,485.597C189.945,483.943 189.78,482.226 189.63,480.483L190.297,480.426C190.447,482.164 190.612,483.877 190.783,485.528L190.116,485.597ZM189.329,476.64C189.208,474.916 189.108,473.194 189.037,471.509L189.706,471.48C189.777,473.158 189.876,474.874 189.997,476.594L189.329,476.64ZM188.928,467.652C188.922,467.204 188.919,466.762 188.919,466.325C188.919,464.989 188.946,463.708 189.007,462.503L189.676,462.537C189.616,463.728 189.589,464.999 189.589,466.325C189.589,466.759 189.592,467.198 189.598,467.643L188.928,467.652Z" style="fill:rgb(246,204,177);fill-rule:nonzero;"/>
    </g>
    <g transform="matrix(1.35341,0,0,1.35341,-203.774,-78.0594)">
        <path d="M192.384,500.949L192.044,500.949C192.01,500.728 191.871,499.8 191.668,498.346L192.332,498.253C192.565,499.925 192.713,500.896 192.714,500.898L192.384,500.949Z" style="fill:rgb(246,204,177);fill-rule:nonzero;"/>
    </g>
</svg>
