<?xml version="1.0" encoding="UTF-8" standalone="no"?>
<!DOCTYPE svg PUBLIC "-//W3C//DTD SVG 1.1//EN" "http://www.w3.org/Graphics/SVG/1.1/DTD/svg11.dtd">
<svg width="100%" height="100%" viewBox="0 0 900 900" version="1.1" xmlns="http://www.w3.org/2000/svg" xmlns:xlink="http://www.w3.org/1999/xlink" xml:space="preserve" xmlns:serif="http://www.serif.com/" style="fill-rule:evenodd;clip-rule:evenodd;stroke-linejoin:round;stroke-miterlimit:2;">
    <g transform="matrix(2.4099,0,0,2.4099,-143.752,-166.821)">
        <path d="M195.207,151.374C176.341,183.725 115.456,193.563 94.254,210.156C74.85,225.348 64.518,260.481 65.565,288.476C66.608,316.479 87.878,344.325 115.797,346.662C127.947,347.674 140.101,344.086 152.264,344.914C191.195,347.572 212.881,391.237 247.109,409.962C286.562,431.544 336.84,416.28 373.341,390.019C396.555,373.32 417.446,351.165 424.841,323.541C432.232,295.922 422.645,262.463 397.474,248.895C374.793,236.668 340.249,238.462 331.419,214.261C325.237,197.339 337.289,179.648 339.997,161.838C344.235,133.932 323.007,106.155 296.101,97.624C269.191,89.097 244.54,87.62 224.715,107.716C215.463,117.094 201.844,139.994 195.207,151.374Z" style="fill:rgb(205,219,239);fill-rule:nonzero;"/>
    </g>
</svg>
