<?xml version="1.0" encoding="UTF-8" standalone="no"?>
<!DOCTYPE svg PUBLIC "-//W3C//DTD SVG 1.1//EN" "http://www.w3.org/Graphics/SVG/1.1/DTD/svg11.dtd">
<svg width="100%" height="100%" viewBox="0 0 600 415" version="1.1" xmlns="http://www.w3.org/2000/svg" xmlns:xlink="http://www.w3.org/1999/xlink" xml:space="preserve" xmlns:serif="http://www.serif.com/" style="fill-rule:evenodd;clip-rule:evenodd;stroke-linejoin:round;stroke-miterlimit:2;">
    <g transform="matrix(1.75158,0,0,1.74792,-131.098,-283.238)">
        <path d="M190.83,176.208C216.388,181.608 243.534,179.505 268.729,170.548C334.594,147.132 388.779,177.476 402.398,196.569C418.205,218.755 420.815,247.946 413.498,274.626C406.18,301.305 389.714,325.665 369.983,346.854C354.553,363.409 336.526,378.61 314.95,387.244C293.87,395.679 270.77,397.346 248.197,398.484C219.164,399.949 189.633,400.692 161.981,393.898C139.432,388.365 116.268,374.685 114.303,353.098C112.632,334.695 127.079,316.584 125.067,298.227C122.245,272.521 89.925,259.785 79.244,236.253C66.781,208.813 82.596,178.579 104.224,172.1C126.769,165.345 162.506,170.223 190.83,176.208Z" style="fill:rgb(253,220,215);fill-rule:nonzero;"/>
    </g>
</svg>
