<?xml version="1.0" encoding="UTF-8" standalone="no"?>
<!DOCTYPE svg PUBLIC "-//W3C//DTD SVG 1.1//EN" "http://www.w3.org/Graphics/SVG/1.1/DTD/svg11.dtd">
<svg width="100%" height="100%" viewBox="0 0 1000 600" version="1.1" xmlns="http://www.w3.org/2000/svg" xmlns:xlink="http://www.w3.org/1999/xlink" xml:space="preserve" xmlns:serif="http://www.serif.com/" style="fill-rule:evenodd;clip-rule:evenodd;stroke-linejoin:round;stroke-miterlimit:2;">
    <g transform="matrix(2.93512,0,0,2.45137,-3134.85,-122.411)">
        <path d="M1080.07,327.786C1064.6,303.786 1072.79,245.797 1075.44,193.135C1076.18,178.566 1082.23,164.554 1093.01,154.728C1116.54,133.303 1143.09,147.61 1166.13,159.38C1184.4,168.714 1207.49,176.486 1224.35,164.801C1236.66,156.275 1240.9,140.455 1247.01,126.792C1254.88,109.2 1268.7,92.587 1287.57,88.703C1311.29,83.82 1334.78,100.912 1346.85,121.911C1358.91,142.91 1362.76,167.451 1369.73,190.639C1379.69,223.796 1396.3,254.812 1404.41,288.472C1412.52,322.127 1410.55,361.106 1387.3,386.759C1369,406.952 1340.22,415.348 1313.01,413.9C1285.79,412.444 1259.79,402.229 1235.4,390.058C1215.89,380.329 1196.08,369.001 1174.29,368.486C1159.81,368.142 1130.38,368.965 1117.29,362.763C1102.89,355.941 1088.7,341.178 1080.07,327.786Z" style="fill:rgb(255,235,202);fill-rule:nonzero;"/>
    </g>
</svg>
