<?xml version="1.0" encoding="UTF-8" standalone="no"?>
<!DOCTYPE svg PUBLIC "-//W3C//DTD SVG 1.1//EN" "http://www.w3.org/Graphics/SVG/1.1/DTD/svg11.dtd">
<svg width="100%" height="100%" viewBox="0 0 300 135" version="1.1" xmlns="http://www.w3.org/2000/svg" xmlns:xlink="http://www.w3.org/1999/xlink" xml:space="preserve" xmlns:serif="http://www.serif.com/" style="fill-rule:evenodd;clip-rule:evenodd;stroke-linejoin:round;stroke-miterlimit:2;">
    <g transform="matrix(1.29854,0,0,1.29854,-56.7179,-28.8192)">
        <path d="M226.209,22.57L226.209,22.495C225.119,22.525 224.03,22.554 222.941,22.576C212.371,22.591 201.801,22.559 191.231,22.529L188.428,22.521C175.319,22.486 162.212,22.469 149.103,22.584C148.108,22.592 147.111,22.602 146.113,22.612C145.577,22.618 145.04,22.624 144.502,22.631C144.078,22.636 143.654,22.642 143.232,22.648C142.242,22.663 141.251,22.679 140.262,22.697L139.426,22.713C138.205,22.737 136.985,22.764 135.765,22.793L134.409,22.827C129.523,22.951 124.635,23.113 119.745,23.292C117.812,23.363 115.878,23.436 113.945,23.511C105.722,23.595 97.175,23.618 88.635,23.458C83.027,23.354 77.731,25.31 72.68,27.833C63.851,32.241 57.166,38.903 52.246,47.314C50.761,49.85 49.501,52.486 48.461,55.19L47.998,56.439L47.559,57.717L47.075,59.262L46.707,60.557L46.576,61.049L46.245,62.382L45.953,63.693L45.917,63.868C45.831,64.285 45.75,64.702 45.673,65.118L45.673,65.121C42.78,80.925 46.721,97.65 57.02,109.656L57.677,110.406L58.032,110.799C58.545,111.359 59.066,111.904 59.596,112.433C60.16,112.997 60.734,113.543 61.316,114.071C61.747,114.461 62.182,114.841 62.622,115.211C65.315,117.474 68.191,119.362 71.25,120.874C71.663,121.078 72.078,121.275 72.496,121.465L72.917,121.653C73.381,121.857 73.85,122.054 74.323,122.242C74.57,122.34 74.818,122.436 75.066,122.529C76.493,123.066 77.956,123.529 79.456,123.916C79.785,124.001 80.116,124.083 80.449,124.161C80.564,124.188 80.68,124.215 80.796,124.241C81.179,124.327 81.564,124.409 81.951,124.486C82.452,124.586 82.958,124.678 83.467,124.762L83.753,124.808C84.081,124.86 84.411,124.909 84.742,124.954C85.041,124.995 85.341,125.034 85.642,125.069C86.156,125.13 86.674,125.184 87.196,125.229L88.11,125.301C88.575,125.333 89.043,125.359 89.515,125.38C89.992,125.4 90.471,125.414 90.953,125.422L92.065,125.43L92.176,125.43L92.176,125.505C93.266,125.475 94.355,125.446 95.444,125.424C106.014,125.409 116.584,125.441 127.154,125.471L129.958,125.479C143.066,125.514 156.173,125.531 169.283,125.416C170.277,125.408 171.274,125.398 172.272,125.388C172.809,125.382 173.345,125.376 173.883,125.369C174.307,125.364 174.731,125.358 175.153,125.352C176.143,125.337 177.134,125.321 178.124,125.303L178.96,125.287C180.18,125.263 181.401,125.236 182.62,125.207L183.977,125.173C188.863,125.049 193.75,124.887 198.64,124.708C200.573,124.637 202.507,124.564 204.44,124.489C212.663,124.405 221.21,124.382 229.751,124.542C235.358,124.646 240.654,122.69 245.705,120.167C254.534,115.759 261.22,109.097 266.14,100.686C267.624,98.15 268.884,95.514 269.924,92.81L270.388,91.561L270.826,90.283L271.31,88.738L271.678,87.443L271.809,86.951L272.14,85.618L272.432,84.307L272.468,84.132C272.554,83.715 272.636,83.298 272.712,82.882L272.712,82.879C275.605,67.075 271.664,50.35 261.366,38.344L260.708,37.594L260.353,37.201C259.84,36.641 259.319,36.096 258.79,35.567C258.225,35.003 257.651,34.457 257.069,33.929C256.638,33.539 256.203,33.159 255.763,32.789C253.07,30.526 250.195,28.638 247.135,27.126C246.723,26.922 246.307,26.725 245.889,26.535L245.468,26.347C245.004,26.143 244.535,25.946 244.062,25.758C243.815,25.66 243.567,25.564 243.319,25.471C241.892,24.934 240.429,24.471 238.929,24.084C238.6,23.999 238.269,23.917 237.936,23.839C237.821,23.812 237.705,23.785 237.589,23.759C237.206,23.673 236.821,23.591 236.434,23.514C235.933,23.414 235.428,23.322 234.918,23.238L234.632,23.192C234.304,23.14 233.974,23.091 233.643,23.046C233.344,23.005 233.044,22.966 232.743,22.931C232.229,22.87 231.711,22.816 231.189,22.771L230.275,22.699C229.81,22.667 229.342,22.641 228.871,22.62C228.394,22.6 227.914,22.586 227.432,22.578L226.32,22.57L226.209,22.57Z" style="fill:rgb(228,135,115);fill-rule:nonzero;"/>
    </g>
</svg>
